<svg xmlns="http://www.w3.org/2000/svg" viewBox="0 0 512 512" role="img" aria-labelledby="title desc">
  <title id="title">กินไรดีนะ</title>
  <desc id="desc">โลโก้กล่องข้าวสำหรับเว็บสุ่มเมนูอาหาร</desc>
  <rect width="512" height="512" rx="112" fill="#f1b942"/>
  <rect x="54" y="54" width="404" height="404" rx="92" fill="#fffaf3" stroke="#171312" stroke-width="24"/>
  <rect x="106" y="128" width="300" height="230" rx="54" fill="#ffffff" stroke="#171312" stroke-width="18"/>
  <path d="M106 236h300" stroke="#171312" stroke-width="16" stroke-linecap="round"/>
  <path d="M254 128v230" stroke="#171312" stroke-width="16" stroke-linecap="round"/>
  <circle cx="177" cy="184" r="32" fill="#ffffff"/>
  <circle cx="177" cy="184" r="18" fill="#f1b942" stroke="#e94f37" stroke-width="8"/>
  <path d="M302 178c30-24 66-10 68 20 2 35-38 62-74 36-18-13-11-42 6-56Z" fill="#2f8f6b"/>
  <path d="M151 286c36-28 77-10 78 27 1 38-48 65-86 37-20-15-10-47 8-64Z" fill="#e94f37"/>
  <circle cx="318" cy="296" r="18" fill="#f1b942"/>
  <circle cx="358" cy="312" r="18" fill="#f1b942"/>
  <circle cx="316" cy="337" r="18" fill="#f1b942"/>
  <path d="M126 402h260" stroke="#171312" stroke-width="22" stroke-linecap="round"/>
</svg>
